<?xml version="1.0" standalone="no"?>
<!DOCTYPE svg PUBLIC "-//W3C//DTD SVG 20010904//EN"
 "http://www.w3.org/TR/2001/REC-SVG-20010904/DTD/svg10.dtd">
<svg version="1.0" xmlns="http://www.w3.org/2000/svg"
 width="380.000000pt" height="500.000000pt" viewBox="0 0 380.000000 500.000000"
 preserveAspectRatio="xMidYMid meet">

<g transform="translate(0.000000,500.000000) scale(0.100000,-0.100000)"
fill="#000000" stroke="none">
<path d="M650 2796 c0 -2 8 -10 18 -17 15 -13 16 -12 3 4 -13 16 -21 21 -21
13z"/>
<path d="M1183 2755 c-9 -24 1 -27 15 -5 8 13 8 20 2 20 -6 0 -13 -7 -17 -15z"/>
<path d="M1739 2753 c-13 -16 -12 -17 4 -4 16 13 21 21 13 21 -2 0 -10 -8 -17
-17z"/>
<path d="M640 2740 c-11 -8 -7 -9 15 -4 37 8 45 14 19 14 -10 0 -26 -5 -34
-10z"/>
<path d="M580 2736 c0 -2 8 -10 18 -17 15 -13 16 -12 3 4 -13 16 -21 21 -21
13z"/>
<path d="M790 2726 c0 -2 8 -10 18 -17 15 -13 16 -12 3 4 -13 16 -21 21 -21
13z"/>
<path d="M1694 2704 c-19 -17 -22 -22 -8 -16 20 10 52 42 42 42 -3 0 -18 -12
-34 -26z"/>
<path d="M636 2705 c10 -8 23 -15 28 -15 6 0 1 7 -10 15 -10 8 -23 15 -28 15
-6 0 -1 -7 10 -15z"/>
<path d="M1837 2694 c-10 -14 -16 -35 -14 -47 4 -21 4 -21 6 2 0 14 8 33 18
43 9 10 14 20 12 22 -2 2 -12 -7 -22 -20z"/>
<path d="M486 2664 c-33 -28 -37 -37 -26 -47 10 -9 11 -9 6 0 -4 7 9 27 31 47
49 46 40 46 -11 0z"/>
<path d="M580 2690 c0 -5 5 -10 11 -10 5 0 7 5 4 10 -3 6 -8 10 -11 10 -2 0
-4 -4 -4 -10z"/>
<path d="M706 2678 c16 -12 34 -25 39 -29 6 -4 17 -3 25 3 12 8 12 9 -2 4 -10
-3 -18 -2 -18 2 0 8 -53 42 -65 42 -4 0 5 -10 21 -22z"/>
<path d="M948 2693 c7 -3 16 -2 19 1 4 3 -2 6 -13 5 -11 0 -14 -3 -6 -6z"/>
<path d="M547 2679 c7 -7 15 -10 18 -7 3 3 -2 9 -12 12 -14 6 -15 5 -6 -5z"/>
<path d="M815 2681 c-6 -11 13 -26 22 -17 4 3 1 6 -6 6 -7 0 -9 5 -6 10 3 6 4
10 1 10 -3 0 -7 -4 -11 -9z"/>
<path d="M633 2665 c-3 -9 -3 -18 -1 -21 3 -3 8 4 11 16 6 23 -1 27 -10 5z"/>
<path d="M1639 2663 c-13 -16 -12 -17 4 -4 16 13 21 21 13 21 -2 0 -10 -8 -17
-17z"/>
<path d="M845 2650 c-5 -16 -10 -19 -18 -11 -24 24 -26 9 -2 -16 14 -15 25
-31 25 -36 0 -4 16 -22 36 -39 24 -22 34 -37 30 -50 -2 -12 3 -26 15 -36 30
-26 24 -42 -16 -42 -23 0 -38 6 -42 16 -3 8 -12 13 -19 10 -7 -3 -16 -1 -19 4
-3 4 6 7 20 5 18 -1 29 4 37 19 9 17 8 19 -3 9 -7 -7 -33 -13 -58 -13 -35 -1
-42 -3 -29 -10 10 -6 14 -18 11 -30 -4 -15 0 -20 16 -20 30 0 26 -13 -9 -33
-27 -17 -34 -15 -31 5 0 4 -10 2 -24 -4 -14 -6 -25 -17 -25 -25 0 -7 -8 -16
-17 -20 -27 -9 -51 -38 -55 -64 -2 -14 -14 -29 -31 -37 -26 -13 -28 -16 -21
-58 5 -36 4 -44 -10 -44 -9 0 -19 12 -22 26 -7 25 -9 26 -58 20 -28 -3 -63 -6
-78 -6 -27 0 -28 -2 -28 -50 0 -38 4 -52 19 -60 23 -12 47 -5 55 16 7 18 46
18 46 0 0 -8 -4 -18 -10 -21 -5 -3 -10 -13 -10 -21 0 -11 8 -14 28 -12 25 3
27 0 32 -37 5 -39 6 -40 45 -40 25 0 47 7 57 18 23 22 42 22 34 0 -6 -14 -3
-14 15 3 16 13 23 15 26 7 3 -7 20 -13 38 -13 22 0 43 -9 61 -25 15 -14 38
-25 51 -25 29 0 77 -45 69 -65 -3 -8 -2 -15 2 -16 33 -3 58 -11 60 -19 2 -6
14 -10 27 -10 39 0 95 -31 95 -53 0 -10 -11 -32 -25 -49 -14 -16 -25 -41 -25
-54 0 -49 -26 -91 -60 -98 -42 -8 -60 -23 -60 -50 0 -31 -64 -98 -86 -89 -13
5 -16 3 -11 -10 8 -20 -17 -47 -44 -47 -10 0 -19 -7 -19 -15 0 -8 -7 -15 -15
-15 -8 0 -12 -6 -9 -14 3 -7 -2 -21 -11 -30 -10 -9 -15 -25 -12 -36 3 -11 -4
-31 -15 -45 -11 -14 -16 -25 -13 -25 4 0 1 -8 -6 -17 -8 -9 -9 -14 -3 -10 6 3
18 -3 27 -14 16 -18 16 -19 -6 -19 -12 0 -29 9 -37 20 -8 11 -20 20 -27 20 -8
0 -13 13 -13 34 0 19 -5 38 -11 41 -7 5 -5 13 7 26 11 12 15 29 11 51 -2 18 4
75 15 127 10 52 18 115 16 140 -3 39 -8 49 -35 66 -17 11 -34 29 -37 41 -3 11
-16 36 -29 55 -26 39 -26 91 0 121 25 28 12 59 -30 73 -21 7 -49 25 -62 39
-13 14 -33 26 -43 26 -11 0 -25 7 -32 15 -7 8 -27 15 -44 15 -34 0 -106 43
-106 63 0 7 -19 31 -41 52 -39 37 -40 38 -19 8 28 -39 17 -59 -12 -24 l-19 25
5 -25 c66 -318 121 -488 231 -716 187 -389 452 -680 687 -755 51 -16 80 -19
154 -14 80 5 106 12 225 60 203 82 280 101 424 100 144 -1 224 -20 395 -95
143 -64 228 -81 330 -68 206 26 444 225 637 534 110 177 275 516 253 523 -29
10 -131 69 -186 108 -147 105 -264 276 -321 471 -16 57 -20 62 -42 56 -17 -4
-22 -2 -17 6 11 16 -9 13 -24 -4 -13 -16 -9 -18 28 -15 27 2 30 -16 3 -25 -17
-5 -17 -9 -5 -45 13 -36 12 -42 -9 -74 -24 -38 -111 -82 -140 -70 -27 10 -32
-22 -8 -52 28 -35 26 -58 -5 -79 -25 -16 -27 -16 -54 10 -20 19 -29 23 -33 13
-5 -15 10 -48 28 -63 15 -12 29 -65 18 -65 -27 1 -73 88 -73 138 0 24 -5 32
-17 32 -11 0 -25 16 -36 41 -16 33 -23 39 -40 33 -12 -4 -27 -12 -34 -18 -7
-6 -26 -22 -43 -36 -20 -16 -30 -33 -30 -50 0 -15 -9 -35 -19 -44 -19 -17 -20
-16 -45 33 -14 28 -26 62 -26 76 0 14 -6 25 -13 25 -7 0 -24 13 -37 28 -22 24
-32 28 -82 27 -31 0 -54 -3 -51 -7 2 -5 10 -8 18 -8 25 0 24 -15 -3 -46 -29
-33 -58 -51 -112 -71 -56 -20 -63 -17 -94 50 -31 65 -53 97 -68 97 -4 0 2 -17
15 -37 13 -21 27 -51 31 -66 4 -16 17 -39 30 -52 13 -13 26 -31 30 -40 4 -11
12 -15 24 -10 36 14 72 17 72 7 0 -30 -27 -71 -77 -118 -60 -55 -62 -61 -52
-160 3 -25 -3 -38 -30 -63 -23 -21 -32 -37 -28 -51 3 -10 -1 -24 -9 -31 -8 -6
-14 -17 -14 -25 0 -7 -17 -31 -38 -54 -29 -30 -47 -40 -70 -40 -17 0 -37 -3
-46 -6 -10 -4 -18 1 -22 12 -3 11 -12 31 -20 46 -8 14 -14 35 -14 45 0 10 -9
36 -20 58 -23 46 -24 57 -8 101 10 28 8 39 -15 87 -15 29 -27 66 -27 80 0 20
-5 27 -19 27 -11 0 -23 5 -26 11 -6 9 -78 6 -140 -6 -13 -3 -37 11 -69 41
l-50 44 2 66 c2 69 20 116 52 137 11 6 20 18 20 25 0 7 12 25 26 39 20 20 23
28 12 34 -7 5 -19 9 -25 9 -9 0 -13 17 -13 50 l0 50 45 0 c49 0 62 20 25 40
-11 6 -20 15 -20 20 0 6 9 10 20 10 11 0 20 5 20 11 0 7 -12 8 -32 4 -27 -6
-31 -5 -20 6 19 21 14 31 -10 18 -18 -9 -24 -8 -34 6 -13 17 -9 45 7 45 5 0 9
7 9 15 0 18 17 20 23 3 2 -7 4 2 3 19 l-1 33 -17 -23 c-10 -12 -18 -25 -18
-28 0 -3 -7 -6 -15 -6 -13 0 -13 3 2 19 13 15 14 21 4 31 -7 6 -12 8 -11 2 7
-34 3 -35 -243 -35 -152 0 -247 -4 -253 -10 -7 -7 -16 -4 -29 10 -18 20 -8 29
12 9 8 -8 13 -8 17 0 4 6 0 11 -10 11 -16 0 -16 1 2 15 17 13 16 13 -13 3 -35
-13 -41 -26 -20 -47 10 -10 9 -11 -5 -6 -9 4 -18 16 -21 27 -3 11 -10 17 -16
13 -6 -3 -11 0 -11 9 0 8 -5 16 -11 18 -9 3 -9 10 0 27 7 12 10 25 8 28 -3 2
-8 -5 -12 -17z m95 -120 c0 -5 3 -9 8 -9 4 1 16 1 27 -1 l20 -1 -20 -8 c-11
-5 -28 -3 -37 3 -20 12 -24 26 -8 26 6 0 10 -4 10 -10z m505 -10 c-3 -5 -14
-10 -23 -9 -14 0 -13 2 3 9 27 11 27 11 20 0z m-610 -90 c3 -5 1 -10 -4 -10
-6 0 -11 5 -11 10 0 6 2 10 4 10 3 0 8 -4 11 -10z m2173 -318 c-5 -27 -28 -26
-26 1 1 16 7 23 16 20 7 -3 12 -12 10 -21z m-2358 -18 c22 -9 40 -20 40 -25 0
-14 -39 -10 -65 7 -14 9 -33 13 -45 9 -21 -7 -29 10 -7 18 21 9 36 7 77 -9z
m95 -38 c17 -12 17 -13 -9 -20 -34 -8 -51 1 -35 20 14 17 20 17 44 0z m45 -6
c0 -5 -4 -10 -10 -10 -5 0 -10 5 -10 10 0 6 5 10 10 10 6 0 10 -4 10 -10z
m-130 -10 c0 -5 -4 -10 -10 -10 -5 0 -10 5 -10 10 0 6 5 10 10 10 6 0 10 -4
10 -10z m2357 -12 c-4 -14 0 -26 11 -34 15 -12 15 -13 -6 -14 -19 0 -21 -2
-10 -14 8 -8 15 -10 19 -4 4 7 9 7 13 0 3 -5 -2 -13 -11 -16 -11 -4 -21 0 -27
11 -26 44 -26 93 1 93 11 0 14 -7 10 -22z m-42 -87 c-3 -6 -11 -11 -17 -11 -6
0 -6 6 2 15 14 17 26 13 15 -4z m-430 -24 c0 -26 -20 -25 -23 2 -3 16 1 22 10
19 7 -3 13 -12 13 -21z m515 3 c0 -21 -8 -24 -34 -14 -29 11 -17 26 27 33 4 0
7 -8 7 -19z m-94 -45 c1 -17 -6 -45 -14 -63 -12 -27 -19 -32 -36 -28 -12 3
-27 6 -34 6 -7 0 -16 10 -21 23 -9 23 -4 50 8 43 4 -3 20 8 37 24 36 36 59 35
60 -5z m-211 -7 c25 -19 50 -49 59 -69 13 -32 20 -37 56 -42 43 -5 58 -13 48
-23 -10 -9 -74 7 -106 26 -17 10 -49 44 -71 74 -58 78 -55 85 14 34z m285 -29
c0 -6 -6 -9 -13 -6 -8 3 -20 1 -28 -4 -12 -7 -12 -9 1 -9 9 0 16 -10 16 -25 2
-26 -11 -34 -19 -12 -3 7 -6 4 -6 -6 -1 -25 -21 -11 -21 14 0 34 19 59 45 59
14 0 25 -5 25 -11z m50 1 c0 -5 -4 -10 -10 -10 -5 0 -10 5 -10 10 0 6 5 10 10
10 6 0 10 -4 10 -10z m60 -25 c0 -17 16 -20 25 -6 12 20 96 -17 131 -56 49
-55 43 -74 -11 -32 -18 15 -29 18 -34 11 -4 -7 -21 -9 -44 -5 -29 4 -35 9 -27
18 8 10 2 16 -25 25 -49 16 -70 60 -28 60 7 0 13 -7 13 -15z m200 -47 c-13
-10 -26 -16 -29 -12 -3 3 2 11 11 18 10 7 15 16 11 20 -4 4 1 4 11 0 18 -7 18
-8 -4 -26z m-373 -34 c-3 -3 -12 -4 -19 -1 -8 3 -5 6 6 6 11 1 17 -2 13 -5z
m93 0 c0 -13 -38 -19 -58 -9 -21 11 -20 12 18 12 22 0 40 -1 40 -3z m88 -40
c17 -5 21 -11 17 -25 -5 -14 0 -22 17 -28 30 -11 38 -6 38 30 0 33 19 39 27 9
3 -11 9 -20 14 -20 5 0 9 -7 9 -16 0 -8 12 -28 28 -44 33 -34 62 -85 62 -110
0 -28 -39 -109 -58 -118 -9 -5 -34 -10 -55 -11 -31 -1 -40 2 -44 18 -3 11 -14
23 -25 27 -11 3 -29 15 -40 26 -16 16 -28 19 -61 14 -23 -4 -46 -11 -52 -16
-5 -4 -31 -11 -57 -15 -48 -7 -48 -7 -48 21 -1 16 -7 42 -13 58 -7 17 -11 42
-9 57 3 23 12 30 49 41 25 7 48 20 51 28 9 24 46 50 63 44 9 -2 24 5 34 16 20
22 20 22 53 14z m-1016 -96 c-14 -50 -22 -64 -40 -66 -15 -2 -22 2 -24 15 -4
50 6 80 35 111 43 45 54 23 29 -60z m1168 -288 c-9 -17 -30 -28 -30 -16 0 2
-3 11 -6 20 -5 12 0 16 20 16 24 0 25 -2 16 -20z m-2425 -160 c-3 -5 -12 -7
-20 -3 -21 7 -19 13 6 13 11 0 18 -4 14 -10z"/>
<path d="M960 2662 c0 -6 5 -14 11 -18 8 -4 7 -9 -2 -16 -10 -6 -7 -7 10 -3
13 4 34 2 47 -5 30 -17 54 -6 53 22 l-2 23 -4 -22 c-6 -33 -41 -27 -95 16 -11
9 -18 10 -18 3z"/>
<path d="M1794 2659 c-3 -6 -2 -15 3 -20 5 -5 9 -1 9 11 0 23 -2 24 -12 9z"/>
<path d="M936 2641 c-4 -7 -5 -15 -2 -18 9 -9 19 4 14 18 -4 11 -6 11 -12 0z"/>
<path d="M780 2632 c0 -6 -7 -9 -15 -6 -8 4 -15 1 -15 -5 0 -6 6 -11 14 -11
17 0 31 18 22 27 -3 4 -6 1 -6 -5z"/>
<path d="M510 2620 c-13 -8 -12 -10 3 -10 9 0 17 5 17 10 0 12 -1 12 -20 0z"/>
<path d="M990 2616 c0 -2 7 -7 16 -10 8 -3 12 -2 9 4 -6 10 -25 14 -25 6z"/>
<path d="M1816 2608 c3 -4 10 -5 16 -2 8 5 9 1 4 -12 -4 -10 -4 -15 0 -11 4 4
13 2 21 -4 9 -9 13 -8 13 0 0 6 -4 11 -10 11 -5 0 -9 5 -7 12 1 7 -8 13 -20
14 -12 1 -20 -3 -17 -8z"/>
<path d="M480 2598 c0 -12 8 -18 23 -19 51 -1 91 -25 99 -57 8 -29 28 -45 28
-22 0 6 -4 10 -10 10 -5 0 -10 8 -10 18 0 14 2 15 10 2 5 -8 10 -10 10 -4 0 5
-6 16 -12 23 -8 8 -8 11 -2 8 18 -10 35 16 22 33 -8 12 -9 12 -4 -2 3 -10 1
-18 -3 -18 -5 0 -16 -3 -25 -6 -11 -4 -16 -1 -16 11 0 9 -5 13 -11 10 -6 -4
-17 1 -25 11 -11 15 -13 15 -8 3 4 -13 0 -15 -23 -11 -15 3 -31 10 -35 16 -5
7 -8 4 -8 -6z"/>
<path d="M1633 2596 c0 -9 4 -16 8 -16 5 0 14 -10 20 -22 11 -21 11 -22 -4
-10 -13 11 -17 10 -25 -4 -16 -28 -41 -25 -57 7 -9 16 -11 29 -6 29 5 0 12 -9
16 -19 6 -20 35 -37 35 -21 0 6 -5 10 -11 10 -5 0 -7 5 -4 10 3 6 -1 13 -9 16
-9 3 -14 9 -12 13 2 3 -7 7 -21 8 -15 0 -22 -2 -17 -5 5 -4 9 -11 9 -17 1 -17
28 -65 37 -65 4 0 8 -7 8 -16 0 -8 5 -12 10 -9 6 4 7 11 4 17 -5 7 -1 9 9 5
10 -3 17 -2 17 3 0 6 11 10 25 10 22 0 23 3 16 23 -7 18 -5 26 9 35 14 9 19 8
24 -3 3 -8 3 -21 0 -29 -6 -16 32 -28 55 -17 9 5 21 6 28 4 6 -2 14 1 18 6 3
6 2 11 -4 11 -5 0 -8 11 -6 25 1 14 -2 25 -6 25 -5 0 -9 -11 -9 -24 0 -17 -7
-26 -26 -30 -15 -4 -27 -6 -28 -4 -1 2 -8 16 -14 32 -10 22 -16 26 -24 18 -17
-17 -39 -15 -53 4 -11 15 -12 15 -12 0z"/>
<path d="M605 2590 c-3 -5 -1 -10 4 -10 6 0 11 5 11 10 0 6 -2 10 -4 10 -3 0
-8 -4 -11 -10z"/>
<path d="M1926 2371 l-15 -28 72 -6 c39 -3 73 -4 75 -2 11 11 -45 43 -65 38
-15 -3 -25 0 -29 11 -9 24 -22 20 -38 -13z"/>
<path d="M2153 2393 c-7 -2 -13 -9 -13 -14 0 -6 5 -7 12 -3 7 4 8 3 4 -5 -10
-15 15 -71 32 -71 7 0 10 5 7 10 -3 6 -1 10 5 10 6 0 2 10 -10 22 -23 25 -26
44 -7 51 8 4 7 5 -3 5 -8 0 -21 -2 -27 -5z"/>
<path d="M1759 2350 c19 -16 37 -28 39 -25 6 6 -51 54 -63 54 -5 0 5 -13 24
-29z"/>
<path d="M1675 2361 c-3 -6 -15 -11 -25 -11 -19 0 -70 -40 -70 -55 0 -5 -8
-17 -17 -28 -18 -19 -17 -20 6 -7 13 6 53 13 90 14 60 1 66 -1 64 -19 -1 -18
21 -34 89 -63 5 -2 8 4 8 13 0 14 6 16 33 10 17 -3 54 -9 81 -12 48 -5 49 -5
44 21 -3 14 0 28 6 30 6 3 -2 5 -19 5 -52 -2 -56 0 -67 31 -12 35 -32 35 -34
1 -2 -34 -14 -38 -36 -11 -26 33 -48 35 -48 4 0 -26 -7 -29 -30 -13 -11 8 -12
12 -2 16 18 7 15 19 -11 36 -22 14 -23 14 -23 -4 1 -10 -3 -17 -9 -16 -5 1
-10 14 -11 29 0 31 -9 44 -19 29z m230 -111 c3 -5 -3 -10 -15 -10 -12 0 -18 5
-15 10 3 6 10 10 15 10 5 0 12 -4 15 -10z"/>
<path d="M2150 2195 c0 -3 10 -16 22 -30 20 -24 49 -34 48 -17 -1 7 -70 54
-70 47z"/>
<path d="M3536 1427 c11 -14 22 -23 27 -20 4 2 7 -8 7 -24 1 -24 2 -26 11 -10
15 25 6 43 -32 62 l-31 17 18 -25z"/>
<path d="M3454 1306 c4 -11 2 -22 -4 -26 -7 -4 3 -16 25 -29 42 -25 45 -25 45
-8 0 7 -16 29 -37 48 -25 23 -34 28 -29 15z"/>
<path d="M3363 1167 c-6 -6 -13 -21 -16 -32 -6 -17 -4 -17 13 4 l21 24 27 -26
c36 -35 53 -35 21 -1 -34 36 -55 46 -66 31z"/>
<path d="M3266 1031 c-3 -5 3 -11 14 -14 13 -3 22 -17 26 -36 7 -36 24 -42 24
-8 0 43 -47 86 -64 58z"/>
<path d="M3187 903 c-13 -12 -7 -51 9 -57 48 -19 74 2 50 39 -16 24 -45 33
-59 18z m43 -22 c5 -11 6 -22 2 -25 -14 -8 -46 20 -38 32 11 17 24 15 36 -7z"/>
</g>
</svg>
